<svg width="38" height="38" viewBox="0 0 38 38" fill="none" xmlns="http://www.w3.org/2000/svg">
<path opacity="0.0999774" fill-rule="evenodd" clip-rule="evenodd" d="M19 38C29.4934 38 38 29.4934 38 19C38 8.50659 29.4934 0 19 0C8.50659 0 0 8.50659 0 19C0 29.4934 8.50659 38 19 38Z" fill="white"/>
<path fill-rule="evenodd" clip-rule="evenodd" d="M6.79701 6.57722V4.82389C6.79701 3.96986 7.3712 3.77097 7.77396 3.77097H10.2514V0.0142064L6.83895 0C3.05133 0 2.19056 2.80196 2.19056 4.59527V6.57722H0V9.22621V10.9614H2.2092V21.9231H6.62625V10.9614H9.90493L10.0634 9.23943L10.3077 6.57722H6.79701Z" transform="translate(14.7253 8.76929)" fill="#E8225A"/>
</svg>
