<svg width="38" height="38" viewBox="0 0 38 38" fill="none" xmlns="http://www.w3.org/2000/svg">
<path opacity="0.0999774" fill-rule="evenodd" clip-rule="evenodd" d="M19 38C29.4934 38 38 29.4934 38 19C38 8.50659 29.4934 0 19 0C8.50659 0 0 8.50659 0 19C0 29.4934 8.50659 38 19 38Z" fill="white"/>
<path fill-rule="evenodd" clip-rule="evenodd" d="M20.6154 1.90343C19.8577 2.22657 19.0428 2.44372 18.187 2.54184C19.0608 2.03971 19.73 1.24472 20.0472 0.295887C19.2302 0.761674 18.3236 1.09966 17.36 1.28167C16.5899 0.493044 15.4904 0 14.2742 0C11.9387 0 10.0455 1.81772 10.0455 4.05883C10.0455 4.37713 10.0831 4.68543 10.1536 4.98344C6.63942 4.81445 3.52257 3.19782 1.43711 0.742594C1.07364 1.34194 0.863634 2.03941 0.863634 2.78321C0.863634 4.19057 1.61201 5.43287 2.74561 6.16093C2.05315 6.14003 1.39983 5.95741 0.829772 5.65365V5.70423C0.829772 6.22392 0.933843 6.71878 1.119 7.17518C1.63562 8.44807 2.79842 9.40963 4.2228 9.68552C3.86709 9.77699 3.49461 9.82787 3.10753 9.82787C2.83601 9.82787 2.57102 9.80212 2.31193 9.75367C2.85124 11.3661 4.41292 12.5402 6.2629 12.5723C4.81492 13.662 2.99228 14.3104 1.00996 14.3104C0.667919 14.3104 0.332095 14.2913 0 14.2538C1.87328 15.4052 4.09729 16.0769 6.48378 16.0769C13.0956 16.0769 17.1584 11.6117 18.2301 6.97924C18.42 6.16062 18.5178 5.33596 18.5178 4.52916C18.5178 4.35441 18.5144 4.17815 18.5066 4.00432C19.332 3.43223 20.0497 2.7175 20.6154 1.90343Z" transform="translate(9.26373 11.6924)" fill="#E8225A"/>
</svg>
