<svg width="38" height="38" viewBox="0 0 38 38" fill="none" xmlns="http://www.w3.org/2000/svg">
<path opacity="0.0999774" fill-rule="evenodd" clip-rule="evenodd" d="M19 38C29.4934 38 38 29.4934 38 19C38 8.50659 29.4934 0 19 0C8.50659 0 0 8.50659 0 19C0 29.4934 8.50659 38 19 38Z" fill="white"/>
<path fill-rule="evenodd" clip-rule="evenodd" d="M10.7986 5.8103C12.0385 5.81274 13.2784 5.81519 14.519 5.7998C14.9057 5.79492 15.0757 5.86963 15.1228 6.26514C15.4059 8.63403 14.9486 10.7983 13.1656 12.5867C11.956 13.801 10.409 14.3901 8.67731 14.5701C5.13019 14.9375 1.80901 13.042 0.522858 9.93115C-0.00724792 8.64722 -0.116638 7.31812 0.115173 6.06616C0.659592 3.13696 3.08969 0.630371 6.46893 0.110107C8.81993 -0.253174 10.9185 0.28125 12.7453 1.73462C12.7884 1.76855 12.8338 1.80078 12.8742 1.82935L12.935 1.87305C12.1558 2.61426 11.4246 3.30908 10.6715 4.02417C10.1183 3.56982 9.47794 3.22705 8.72737 3.07275C6.63258 2.6416 4.51509 3.71802 3.65976 5.49097C3.51167 5.80005 3.39639 6.1272 3.33118 6.4729C2.87134 8.91553 4.4827 11.1768 7.07098 11.5767C9.15482 11.8987 11.0994 11.0195 11.7351 9.24609C11.7822 9.11304 11.8163 8.97656 11.8714 8.78711H7.73109C7.73109 8.13232 7.72878 7.49976 7.73276 6.87476C7.73466 6.5769 7.73801 6.28052 7.74371 5.98438C7.74371 5.92456 7.90779 5.82129 7.99994 5.81836C8.36554 5.80493 8.7326 5.8064 9.09927 5.80786L9.44849 5.80884C9.89854 5.80884 10.3486 5.80957 10.7986 5.8103ZM21.0858 6.07422H21.5585H23.5604V6.5061V7.84375H21.08V10.2307H19.2665V7.84937C18.8554 7.84937 18.4849 7.85522 18.1144 7.84888C17.7979 7.84229 17.4818 7.83057 17.1659 7.81885L16.7833 7.80469L16.7716 7.55884C16.7547 7.20435 16.7377 6.84888 16.7228 6.49365C16.7205 6.44116 16.7201 6.38794 16.7204 6.32983C16.7208 6.25464 16.7224 6.1709 16.7224 6.0686H19.2384V5.67407V3.65527C19.8183 3.65527 20.3674 3.64746 20.9162 3.66797C20.9766 3.66943 21.078 3.84082 21.08 3.93457C21.0914 4.38184 21.0894 4.82861 21.0873 5.27539L21.0858 5.6687V5.98462V6.07422Z" transform="translate(7.21979 11.6924)" fill="#E8225A"/>
</svg>
