<svg width="38" height="38" viewBox="0 0 38 38" fill="none" xmlns="http://www.w3.org/2000/svg">
<path opacity="0.0999774" fill-rule="evenodd" clip-rule="evenodd" d="M19 38C29.4934 38 38 29.4934 38 19C38 8.50659 29.4934 0 19 0C8.50659 0 0 8.50659 0 19C0 29.4934 8.50659 38 19 38Z" fill="white"/>
<path fill-rule="evenodd" clip-rule="evenodd" d="M10.2914 0C7.49641 0 7.14597 0.0117188 6.04829 0.0615234C4.95284 0.111084 4.20473 0.283691 3.55017 0.536133C2.87338 0.797363 2.29945 1.14648 1.72731 1.71436C1.15518 2.28223 0.803284 2.85205 0.540329 3.52368C0.285812 4.17334 0.111877 4.91602 0.0619354 6.00317C0.0118256 7.09277 0 7.44043 0 10.2146C0 12.9888 0.0118256 13.3367 0.0619354 14.426C0.111877 15.5134 0.285812 16.2559 0.540329 16.9055C0.803284 17.5774 1.15518 18.147 1.72731 18.7148C2.29945 19.2827 2.87338 19.6321 3.55017 19.8931C4.20473 20.1455 4.95284 20.3181 6.04829 20.3679C7.14597 20.4175 7.49641 20.4292 10.2914 20.4292C13.0864 20.4292 13.4369 20.4175 14.5346 20.3679C15.63 20.3181 16.3781 20.1455 17.0327 19.8931C17.7095 19.6321 18.2834 19.2827 18.8555 18.7148C19.4276 18.147 19.7795 17.5774 20.0425 16.9055C20.297 16.2559 20.4709 15.5134 20.5209 14.426C20.571 13.3367 20.5828 12.9888 20.5828 10.2146C20.5828 7.44043 20.571 7.09277 20.5209 6.00317C20.4709 4.91602 20.297 4.17334 20.0425 3.52368C19.7795 2.85205 19.4276 2.28223 18.8555 1.71436C18.2834 1.14648 17.7095 0.797363 17.0327 0.536133C16.3781 0.283691 15.63 0.111084 14.5346 0.0615234C13.4369 0.0117188 13.0864 0 10.2914 0ZM10.2914 1.84058C13.0394 1.84058 13.3648 1.85107 14.45 1.90015C15.4534 1.94556 15.9984 2.11206 16.361 2.25171C16.8414 2.43726 17.1843 2.65845 17.5443 3.01587C17.9045 3.37329 18.1276 3.71362 18.3142 4.19043C18.4551 4.55029 18.6228 5.09131 18.6686 6.08716C18.718 7.16431 18.7286 7.4873 18.7286 10.2146C18.7286 12.9421 18.718 13.2651 18.6686 14.3423C18.6228 15.3381 18.4551 15.8792 18.3142 16.239C18.1276 16.7158 17.9045 17.0562 17.5443 17.4136C17.1843 17.771 16.8414 17.9924 16.361 18.1777C15.9984 18.3176 15.4534 18.4839 14.45 18.5293C13.365 18.5786 13.0396 18.5889 10.2914 18.5889C7.54326 18.5889 7.21788 18.5786 6.1328 18.5293C5.12946 18.4839 4.58447 18.3176 4.22183 18.1777C3.74146 17.9924 3.39862 17.771 3.0385 17.4136C2.67842 17.0562 2.4554 16.7158 2.26869 16.239C2.12776 15.8792 1.9601 15.3381 1.91426 14.3423C1.86482 13.2651 1.85431 12.9421 1.85431 10.2146C1.85431 7.4873 1.86482 7.16431 1.91426 6.08716C1.9601 5.09131 2.12776 4.55029 2.26869 4.19043C2.4554 3.71362 2.67842 3.37329 3.0385 3.01587C3.39862 2.65845 3.74146 2.43726 4.22183 2.25171C4.58447 2.11206 5.12946 1.94556 6.1328 1.90015C7.21805 1.85107 7.54347 1.84058 10.2914 1.84058ZM5.00665 10.2146C5.00665 7.31763 7.37273 4.96924 10.2914 4.96924C13.2101 4.96924 15.5762 7.31763 15.5762 10.2146C15.5762 13.1116 13.2101 15.46 10.2914 15.46C7.37273 15.46 5.00665 13.1116 5.00665 10.2146ZM10.2914 13.6196C8.39682 13.6196 6.8609 12.0952 6.8609 10.2146C6.8609 8.33423 8.39682 6.80981 10.2914 6.80981C12.186 6.80981 13.7219 8.33423 13.7219 10.2146C13.7219 12.0952 12.186 13.6196 10.2914 13.6196ZM15.785 5.98779C16.4671 5.98779 17.02 5.43896 17.02 4.76221C17.02 4.08521 16.4671 3.53638 15.785 3.53638C15.103 3.53638 14.55 4.08521 14.55 4.76221C14.55 5.43896 15.103 5.98779 15.785 5.98779Z" transform="translate(9.12093 8.80151)" fill="#E8225A"/>
</svg>
