<svg width="38" height="38" viewBox="0 0 38 38" fill="none" xmlns="http://www.w3.org/2000/svg">
<path opacity="0.0999774" fill-rule="evenodd" clip-rule="evenodd" d="M19 38C29.4934 38 38 29.4934 38 19C38 8.50659 29.4934 0 19 0C8.50659 0 0 8.50659 0 19C0 29.4934 8.50659 38 19 38Z" fill="white"/>
<path fill-rule="evenodd" clip-rule="evenodd" d="M21.485 5.08008C21.5388 5.75366 21.5734 6.47266 21.5925 7.19116C21.5992 7.44238 21.6035 7.67578 21.6059 7.8855C21.6074 8.01196 21.6078 8.10303 21.6078 8.15259L21.6073 8.271L21.6059 8.41943C21.6045 8.54053 21.6025 8.66943 21.5998 8.80518L21.5925 9.11377C21.5734 9.83228 21.5389 10.5513 21.485 11.2249C21.4113 12.1467 21.3071 12.9109 21.1634 13.4771C20.8744 14.6187 20.0183 15.5229 18.9215 15.8323C18.2466 16.0232 16.885 16.144 14.979 16.2209C14.0649 16.2578 13.0869 16.2815 12.1091 16.2947C11.767 16.2993 11.4493 16.3022 11.1641 16.3037C10.9926 16.3049 10.8699 16.3052 10.8038 16.3052C10.7378 16.3052 10.615 16.3049 10.4436 16.3037C10.1584 16.3022 9.84067 16.2993 9.4986 16.2947C8.52081 16.2815 7.54282 16.2578 6.62878 16.2209C4.72283 16.144 3.36124 16.0232 2.68695 15.8325C1.58959 15.5229 0.733437 14.6187 0.444542 13.4775C0.300774 12.9109 0.196602 12.1467 0.122864 11.2249C0.0689926 10.5513 0.0344925 9.83228 0.0153275 9.11377C0.00863647 8.86255 0.00432587 8.62915 0.00193024 8.41943L0.000473022 8.26465L0 8.15259C0 8.10303 0.000488281 8.01196 0.00193024 7.8855C0.00432587 7.67578 0.00863647 7.44238 0.0153351 7.19116C0.0344925 6.47266 0.0690079 5.75366 0.122887 5.08008C0.196617 4.1582 0.300781 3.39404 0.444443 2.82788C0.733406 1.68628 1.58948 0.782227 2.68646 0.472656C3.36128 0.281738 4.72286 0.160889 6.62878 0.0842285C7.54283 0.0473633 8.52081 0.0236816 9.4986 0.010498C9.84068 0.00585938 10.1584 0.00292969 10.4436 0.0012207L10.8038 0L11.1641 0.0012207C11.4493 0.00292969 11.767 0.00585938 12.1091 0.010498C13.0869 0.0236816 14.0649 0.0473633 14.979 0.0842285C16.8849 0.160889 18.2466 0.281738 18.921 0.472656C20.0183 0.782227 20.8743 1.68604 21.1633 2.82739C21.3071 3.39429 21.4112 4.15845 21.485 5.08008ZM19.9274 3.14062C19.7487 2.43457 19.2269 1.88354 18.5743 1.69946C18.0351 1.54688 16.7208 1.43018 14.9276 1.35791C14.0263 1.32178 13.0592 1.29834 12.092 1.2854C11.7533 1.28076 11.4389 1.27783 11.1568 1.27612L10.8038 1.2749L10.4509 1.27612C10.1689 1.27783 9.85441 1.28076 9.51572 1.2854C8.54849 1.29834 7.58144 1.32178 6.68013 1.35791C4.88702 1.43018 3.57272 1.54688 3.03316 1.69946C2.381 1.88354 1.85917 2.43457 1.68037 3.14111C1.55804 3.62305 1.46231 4.32544 1.39382 5.18164C1.34196 5.83008 1.30849 6.52734 1.28988 7.2251C1.27872 7.64404 1.275 7.96875 1.275 8.15234C1.275 8.33594 1.27872 8.66089 1.28988 9.07959C1.30848 9.77734 1.34195 10.4746 1.39381 11.123C1.4623 11.9792 1.55802 12.6816 1.68046 13.1641C1.85918 13.8701 2.38106 14.4214 3.0336 14.6055C3.57276 14.7581 4.88705 14.8745 6.68014 14.947C7.58145 14.9832 8.54849 15.0066 9.51573 15.0198L9.97457 15.0249L10.4509 15.0288L10.8038 15.03L11.1568 15.0288C11.4389 15.0271 11.7533 15.0242 12.092 15.0198C13.0592 15.0066 14.0263 14.9832 14.9276 14.947C16.7208 14.8745 18.0351 14.7581 18.5748 14.6052C19.2268 14.4214 19.7487 13.8701 19.9275 13.1638C20.0498 12.6816 20.1456 11.9792 20.2141 11.123C20.2659 10.4746 20.2994 9.77734 20.318 9.07959C20.3291 8.66089 20.3329 8.33594 20.3329 8.15234C20.3329 8.05957 20.3319 7.93042 20.3295 7.77148C20.328 7.66919 20.3259 7.55444 20.323 7.42871L20.318 7.2251C20.2994 6.52734 20.2659 5.83008 20.214 5.18164C20.1455 4.32544 20.0498 3.62305 19.9275 3.14111L20.5454 2.98438L19.9274 3.14062ZM14.4504 8.38452L9.04534 11.8674V4.90088L14.4504 8.38452Z" transform="translate(8.01012 10.9324)" fill="#E8225A"/>
</svg>
